<?xml version="1.0" standalone="no"?><!DOCTYPE svg PUBLIC "-//W3C//DTD SVG 1.1//EN" "http://www.w3.org/Graphics/SVG/1.1/DTD/svg11.dtd"><svg t="1774938699277" class="icon" viewBox="0 0 1024 1024" version="1.1" xmlns="http://www.w3.org/2000/svg" p-id="6516" xmlns:xlink="http://www.w3.org/1999/xlink" width="32" height="32"><path d="M512 832c-176.448 0-320-143.552-320-320S335.552 192 512 192s320 143.552 320 320-143.552 320-320 320m0-704C300.256 128 128 300.256 128 512s172.256 384 384 384 384-172.256 384-384S723.744 128 512 128" fill="#ffffff" p-id="6517"></path><path d="M544 505.856V320a32 32 0 0 0-64 0v199.104c0 8.48 3.36 16.64 9.376 22.624l107.296 107.296a31.904 31.904 0 0 0 45.248 0 32 32 0 0 0 0-45.248L544 505.856z" fill="#ffffff" p-id="6518"></path></svg>