<svg width="24" height="24" viewBox="0 0 24 24" fill="none" xmlns="http://www.w3.org/2000/svg">
<path d="M14.9952 8.25002C16.4943 8.25002 17.6861 8.24863 18.6065 8.35744C19.5338 8.4671 20.3229 8.70136 20.9239 9.27834C21.5481 9.87783 21.7429 10.6276 21.7501 11.4785C21.7569 12.291 21.5915 13.3137 21.3946 14.5528L21.0147 16.9512V16.9522C20.8608 17.9217 20.7344 18.7305 20.5343 19.3662C20.3239 20.0342 20.0105 20.5894 19.4395 21.0098C18.8831 21.4193 18.2318 21.5911 17.4747 21.6719C16.7292 21.7514 15.7883 21.75 14.6143 21.75H9.38582C8.2114 21.75 7.27073 21.7514 6.52547 21.6719C5.7685 21.5911 5.11814 21.419 4.56161 21.0098H4.56063C3.98977 20.5894 3.67623 20.0341 3.4659 19.3662C3.26576 18.7305 3.13932 17.9217 2.98543 16.9522V16.9512L2.60555 14.5518L2.4659 13.6631C2.33679 12.8151 2.24496 12.0878 2.25008 11.4785C2.25725 10.6277 2.45216 9.87782 3.07625 9.27834C3.6772 8.70132 4.46639 8.46711 5.39364 8.35744C6.31402 8.24861 7.5059 8.25002 9.00496 8.25002H14.9952ZM9.00496 9.75002C7.46775 9.75002 6.38094 9.75171 5.56942 9.84767C4.76529 9.94283 4.36741 10.1183 4.11532 10.3604C3.88676 10.58 3.75529 10.8726 3.75008 11.4912C3.74594 11.9843 3.82162 12.6 3.94637 13.4219L4.087 14.3164L4.46688 16.7168L4.57918 17.417C4.68548 18.06 4.77724 18.5371 4.89657 18.916C5.04549 19.389 5.21412 19.6279 5.45028 19.8018C5.70167 19.9865 6.05006 20.112 6.68465 20.1797C7.33179 20.2487 8.17823 20.25 9.38582 20.25H14.6143C15.8215 20.25 16.6681 20.2487 17.3155 20.1797C17.9508 20.1119 18.2991 19.9863 18.5499 19.8018C18.7861 19.6279 18.9546 19.389 19.1036 18.916C19.2627 18.4109 19.3722 17.7314 19.5333 16.7168L19.9132 14.3174L20.0538 13.4229C20.1786 12.6005 20.2542 11.9845 20.2501 11.4912C20.2449 10.8724 20.1135 10.58 19.8848 10.3604C19.6327 10.1184 19.2349 9.94282 18.4307 9.84767C17.6192 9.75173 16.5324 9.75002 14.9952 9.75002H9.00496ZM9.45028 13.4551C9.45051 12.342 10.6403 11.5616 11.6612 12.1455L14.6954 13.8799H14.6944C15.7015 14.4548 15.702 15.9247 14.6954 16.5L11.6612 18.2344V18.2354C10.6419 18.8169 9.45032 18.0399 9.45028 16.9248V13.4551ZM10.9503 16.9131L13.9493 15.1983C13.9498 15.1962 13.9503 15.1935 13.9503 15.1904C13.9503 15.1871 13.9498 15.1839 13.9493 15.1817L10.9503 13.4658V16.9131ZM17.3048 5.36818C18.7317 5.36818 19.899 6.29387 20.3731 7.53224L20.4581 7.7842L20.46 7.7881L20.4806 7.86232L20.7462 8.79006L19.835 8.4717C19.508 8.35773 19.1603 8.28227 18.796 8.22853C17.8476 8.08871 16.6352 8.08693 15.1651 8.08693H8.83504C7.36492 8.08693 6.15162 8.0887 5.20418 8.22853H5.20321C4.84226 8.28092 4.49246 8.35882 4.16317 8.47267L3.24129 8.79103L3.52059 7.85646L3.54305 7.78322C3.94841 6.42124 5.17454 5.36829 6.69539 5.36818H17.3048ZM6.69539 6.36818C5.97532 6.36826 5.33399 6.71667 4.91317 7.26174C4.962 7.25374 5.01091 7.24537 5.05965 7.2383C6.09585 7.08549 7.39243 7.08693 8.83504 7.08693H15.1651C16.6083 7.08693 17.9042 7.08635 18.9415 7.23927C18.9899 7.24641 19.0385 7.25473 19.087 7.26271C18.6661 6.71758 18.0257 6.36818 17.3048 6.36818H6.69539ZM15.127 2.50002C15.3308 2.50002 15.525 2.49916 15.7013 2.51857H15.7022C16.9212 2.65609 17.905 3.49455 18.3194 4.60158L18.5714 5.27736H5.27059L5.52352 4.60158C5.93789 3.49469 6.92091 2.65617 8.13973 2.51857L8.4161 2.50197C8.51242 2.49968 8.61311 2.50002 8.7159 2.50002H15.127ZM8.7159 3.50002C8.49164 3.50002 8.35877 3.4997 8.25106 3.51174C7.69585 3.5746 7.20255 3.85739 6.85164 4.27736H16.9903C16.6393 3.85744 16.1461 3.57548 15.5909 3.51271V3.51174C15.4811 3.49972 15.3482 3.50002 15.127 3.50002H8.7159Z" fill="white" fill-opacity="0.7"/>
</svg>
