<svg width="24" height="24" viewBox="0 0 24 24" fill="none" xmlns="http://www.w3.org/2000/svg">
<path d="M6.70647 3.61118C8.21563 2.89799 9.90355 2.80862 11.5014 3.3436C13.0991 3.87868 14.3421 5.03802 15.0523 6.55357C15.7624 8.0693 15.8513 9.76411 15.3189 11.369L20.2017 16.2733C21.2668 17.3433 21.2665 19.1271 20.2017 20.1972L19.9644 20.3857C19.4026 20.7951 18.7809 20.9998 18.1597 20.9999L17.8941 20.9872C17.3635 20.9372 16.8453 20.7366 16.4146 20.3857L16.2066 20.1972L11.3237 15.2929C8.48545 16.3295 5.23071 15.1063 3.73867 12.3534L3.6 12.0829C2.80098 10.3886 2.80098 8.42656 3.6 6.73228C3.68893 6.46501 3.95491 6.28625 4.2211 6.19713C4.48722 6.10825 4.75381 6.19748 5.01993 6.46471L7.86078 9.31823H9.28169V7.89147L6.44085 5.03794C6.26329 4.8596 6.17424 4.59189 6.17424 4.23521C6.26304 3.96801 6.44054 3.70042 6.70647 3.61118ZM11.0249 4.76646C10.0778 4.44936 9.10336 4.41716 8.18305 4.66196L10.7817 7.27233V10.8182H7.23773L4.65177 8.22057C4.37843 9.28427 4.47719 10.4193 4.9506 11.4305L5.05704 11.6386C6.20056 13.7483 8.68077 14.661 10.8091 13.8837L11.7095 13.5546L17.2691 19.1386C17.5025 19.373 17.8227 19.4999 18.1597 19.4999C18.4643 19.4998 18.8141 19.3913 19.1714 19.1005C19.6185 18.6111 19.6087 17.8047 19.1382 17.3319L13.604 11.7733L13.895 10.8964C14.3095 9.64691 14.2371 8.3499 13.6938 7.19029C13.1473 6.02382 12.2106 5.16359 11.0249 4.76646Z" fill="white" fill-opacity="0.7"/>
</svg>
