<svg width="24" height="24" viewBox="0 0 24 24" fill="none" xmlns="http://www.w3.org/2000/svg">
<path d="M12 2C12.4726 2 12.93 2.16757 13.291 2.47266L20.291 8.47266C20.5132 8.66044 20.692 8.89433 20.8145 9.1582C20.9368 9.42194 21 9.70927 21 10V19C21 19.5304 20.7891 20.04 20.4141 20.415L20.2676 20.5479C19.9117 20.8394 19.4641 21 19 21H5C4.53592 21 4.0883 20.8394 3.73242 20.5479L3.58594 20.415C3.21086 20.04 3 19.5304 3 19V10C3 9.78196 3.03603 9.56602 3.10547 9.36035L3.18555 9.1582C3.30798 8.89433 3.48683 8.66044 3.70898 8.47266L10.709 2.47266C11.07 2.16757 11.5274 2 12 2ZM12 3.5C11.882 3.5 11.7679 3.54203 11.6777 3.61816L4.68555 9.61133L4.67773 9.61816C4.62234 9.66498 4.57748 9.72332 4.54688 9.78906C4.51628 9.855 4.5 9.92731 4.5 10V19C4.5 19.1326 4.55272 19.2607 4.64648 19.3545C4.74023 19.4481 4.86751 19.5 5 19.5H9V12C9 11.7348 9.10543 11.4805 9.29297 11.293C9.48051 11.1054 9.73478 11 10 11H14C14.2652 11 14.5195 11.1054 14.707 11.293C14.8946 11.4805 15 11.7348 15 12V19.5H19C19.1325 19.5 19.2598 19.4481 19.3535 19.3545C19.4473 19.2607 19.5 19.1326 19.5 19V10C19.5 9.92731 19.4837 9.855 19.4531 9.78906C19.4225 9.72332 19.3777 9.66498 19.3223 9.61816L19.3145 9.61133L12.3223 3.61816L12.251 3.56738C12.1752 3.52342 12.0886 3.5 12 3.5ZM10.5 19.5H13.5V12.5H10.5V19.5Z" fill="white" fill-opacity="0.7"/>
</svg>
