<svg width="24" height="24" viewBox="0 0 24 24" fill="none" xmlns="http://www.w3.org/2000/svg">
<path d="M12.4316 4.8418C12.5442 4.84178 12.6557 4.86396 12.7598 4.90625C12.8638 4.94856 12.9585 5.01067 13.0381 5.08887C13.1177 5.16705 13.1805 5.26016 13.2236 5.3623C13.2667 5.46443 13.2891 5.57404 13.2891 5.68457C13.289 5.79505 13.2667 5.90476 13.2236 6.00684C13.1806 6.10876 13.1175 6.20124 13.0381 6.2793C12.9585 6.35749 12.8638 6.4196 12.7598 6.46191C12.6557 6.50423 12.5443 6.52638 12.4316 6.52637H6.42969C5.28647 6.52638 4.71484 7.08814 4.71484 8.21094V16.6318C4.71493 17.7545 5.28655 18.3154 6.42969 18.3154H16.7188C17.8619 18.3154 18.4335 17.7545 18.4336 16.6318V12.4209C18.4336 12.3104 18.456 12.2007 18.499 12.0986C18.5421 11.9965 18.605 11.9034 18.6846 11.8252C18.7642 11.747 18.8589 11.6849 18.9629 11.6426C19.0669 11.6003 19.1785 11.5791 19.291 11.5791C19.4035 11.5791 19.5152 11.6003 19.6191 11.6426C19.7231 11.6849 19.8179 11.7471 19.8975 11.8252C19.977 11.9033 20.0399 11.9966 20.083 12.0986C20.1261 12.2007 20.1484 12.3104 20.1484 12.4209V16.6318C20.1484 17.5619 19.8133 18.3554 19.1436 19.0127C18.4742 19.6707 17.6659 20 16.7188 20H6.42969C5.48253 20 4.67424 19.6707 4.00488 19.0127C3.33514 18.3554 3.00006 17.5619 3 16.6318V8.21094C3 7.28071 3.33496 6.4865 4.00488 5.8291C4.67424 5.17114 5.48253 4.8418 6.42969 4.8418H12.4316ZM10.5537 9.37109C10.7703 9.3711 10.9833 9.42693 11.1709 9.5332L14.4121 11.3711C15.2352 11.8376 15.2352 13.0042 14.4121 13.4707L11.1709 15.3096C10.9832 15.4159 10.7704 15.4717 10.5537 15.4717C10.337 15.4716 10.1242 15.416 9.93652 15.3096C9.74883 15.2031 9.59268 15.0497 9.48438 14.8652C9.37611 14.6809 9.31924 14.4716 9.31934 14.2588V10.584C9.31935 10.3712 9.37612 10.1618 9.48438 9.97754C9.59275 9.7932 9.74883 9.63963 9.93652 9.5332C10.1241 9.42684 10.3371 9.37113 10.5537 9.37109ZM17.5703 4C17.8481 4.00002 17.9096 4.2696 17.9971 4.65527C18.0965 5.09485 18.2314 5.68512 18.7578 6.20215C19.2843 6.71919 19.8854 6.85154 20.333 6.94922C20.7264 7.03591 20.9998 7.09558 21 7.36816C21 7.641 20.7257 7.70135 20.333 7.78809C19.8854 7.88577 19.2843 8.01726 18.7578 8.53516C18.2315 9.05216 18.0974 9.64251 17.9971 10.082C17.9097 10.4675 17.848 10.7373 17.5703 10.7373C17.2935 10.7373 17.2319 10.4675 17.1445 10.082C17.0442 9.64253 16.91 9.05214 16.3838 8.53516C15.8574 8.01816 15.2553 7.88577 14.8086 7.78809C14.415 7.70135 14.1406 7.64101 14.1406 7.36816C14.1408 7.09555 14.4152 7.03593 14.8086 6.94922C15.2553 6.85154 15.8573 6.72002 16.3838 6.20215C16.9102 5.68512 17.0442 5.09483 17.1445 4.65527C17.232 4.26959 17.2934 4 17.5703 4Z" fill="white" fill-opacity="0.7"/>
</svg>
